# xmcd CD database file
#
# Track frame offsets:
#	150
#	20192
#	36210
#	50972
#	62362
#	85192
#	99172
#	117817
#	141275
#	163675
#	180140
#	193637
#	217060
#	229395
#	248840
#	268365
#
# Disc length: 3765 seconds
#
# Revision: 3
# Processed by: cddbd v1.5.2PL0 Copyright (c) Steve Scherf et al.
# Submitted via: CDex 1.51
#
DISCID=e60eb310
DTITLE=Patrick Normand - Les Grands Succès
DYEAR=1996
DGENRE=Country
TTITLE0=Quand on est en amour
TTITLE1=La lumière de l'amour
TTITLE2=L'hirondelle
TTITLE3=Papillon
TTITLE4=Elle s'en va
TTITLE5=C'est la saison
TTITLE6=Forever
TTITLE7=Whispering Shadows
TTITLE8=J'ai oublié de vivre
TTITLE9=C'est pour toi que je chante
TTITLE10=Perce les nuages
TTITLE11=Souvenir d'un vieillard
TTITLE12=Aiko Aiko
TTITLE13=Crois en l'amour
TTITLE14=Où serons-nous demain
TTITLE15=Maintenant je sais
EXTD=YEAR: 1996
EXTT0=
EXTT1=
EXTT2=
EXTT3=
EXTT4=
EXTT5=
EXTT6=
EXTT7=
EXTT8=
EXTT9=
EXTT10=
EXTT11=
EXTT12=
EXTT13=
EXTT14=
EXTT15=
PLAYORDER=
